Coordinates
version=1
nRows=41
nColumns=38
inDegrees=no

Units are S.I. units (second, meters, Newtons, ...)
If the header above contains a line with 'inDegrees', this indicates whether rotational values are in degrees (yes) or radians (no).

endheader
time	pelvis_tilt	pelvis_list	pelvis_rotation	pelvis_tx	pelvis_ty	pelvis_tz	hip_flexion_r	hip_adduction_r	hip_rotation_r	knee_angle_r	ankle_angle_r	subtalar_angle_r	mtp_angle_r	hip_flexion_l	hip_adduction_l	hip_rotation_l	knee_angle_l	ankle_angle_l	subtalar_angle_l	mtp_angle_l	lumbar_extension	lumbar_bending	lumbar_rotation	arm_flex_r	arm_add_r	arm_rot_r	elbow_flex_r	pro_sup_r	wrist_flex_r	wrist_dev_r	arm_flex_l	arm_add_l	arm_rot_l	elbow_flex_l	pro_sup_l	wrist_flex_l	wrist_dev_l
1.92	0.389316	1.47946	-2.03167	0.962648	-0.400821	0.928859	-0.275252	0.00224413	-0.212488	0.0790995	0.234774	0	0	0.277782	-0.0369078	-0.321726	0.062727	0.135904	0	0	-0.246764	-0.0514655	-0.0829813	-0.208725	-0.225283	0.0964171	0.674034	0.435979	0	0	-0.0931903	-0.312818	0.198327	0.634494	1.36222	0	0
1.93	0.380671	1.48061	-2.02233	0.9628	-0.410447	0.926858	-0.283686	0.00200738	-0.217753	0.0851621	0.245178	0	0	0.264726	-0.0259778	-0.298564	0	0.114495	0	0	-0.246081	-0.0519895	-0.0826861	-0.209045	-0.224411	0.093077	0.67511	0.437606	0	0	-0.0931031	-0.31225	0.197426	0.627636	1.36654	0	0
1.94	0.358942	1.47927	-1.99656	0.962823	-0.419414	0.925031	-0.294147	0.00396957	-0.221412	0.0926261	0.253558	0	0	0.273425	-0.0246407	-0.295697	0	0.11282	0	0	-0.249576	-0.0531205	-0.084031	-0.208919	-0.222688	0.0910443	0.675677	0.438555	0	0	-0.0915355	-0.313348	0.196755	0.622219	1.3696	0	0
1.95	0.342697	1.47914	-1.97858	0.96286	-0.428797	0.923139	-0.30253	0.00416348	-0.22717	0.102163	0.263624	0	0	0.280283	-0.0223816	-0.28993	0	0.113911	0	0	-0.250687	-0.0544048	-0.083987	-0.209076	-0.220927	0.0883113	0.675475	0.439727	0	0	-0.0911457	-0.313954	0.194738	0.61664	1.37264	0	0
1.96	0.330288	1.47933	-1.96579	0.962842	-0.438551	0.921256	-0.309425	0.00348403	-0.232983	0.11382	0.27342	0	0	0.285167	-0.0199772	-0.282679	0	0.115808	0	0	-0.250944	-0.056064	-0.0831274	-0.209689	-0.21893	0.0842699	0.67538	0.441223	0	0	-0.091726	-0.31431	0.190736	0.611988	1.37591	0	0
1.97	0.326346	1.47942	-1.96259	0.962768	-0.448812	0.919403	-0.316115	0.00143368	-0.238744	0.126096	0.282631	0	0	0.287619	-0.016835	-0.275461	0	0.116799	0	0	-0.250203	-0.0587387	-0.0813956	-0.2113	-0.216797	0.079624	0.675278	0.442822	0	0	-0.0933887	-0.314835	0.185682	0.608322	1.37941	0	0
1.98	0.327211	1.4795	-1.96523	0.962656	-0.459396	0.917596	-0.322413	-0.00170258	-0.243867	0.139129	0.291642	0	0	0.287949	-0.0134055	-0.267437	0	0.11598	0	0	-0.248925	-0.0619924	-0.0783961	-0.213624	-0.214764	0.0749523	0.675332	0.444065	0	0	-0.0953472	-0.315723	0.180949	0.605754	1.38278	0	0
1.99	0.337463	1.47956	-1.9781	0.962572	-0.47038	0.915847	-0.328549	-0.00628188	-0.24888	0.152306	0.299598	0	0	0.28616	-0.00905821	-0.25805	0	0.114954	0	0	-0.246578	-0.0661774	-0.0742964	-0.216991	-0.212916	0.0706782	0.675419	0.445048	0	0	-0.0978935	-0.316527	0.175923	0.603857	1.3858	0	0
2	0.348181	1.47947	-1.99318	0.962545	-0.481715	0.914266	-0.334961	-0.0134685	-0.256447	0.16596	0.307901	0	0	0.283208	-0.00469041	-0.24726	0.00371252	0.115142	0	0	-0.243679	-0.0704997	-0.0686471	-0.220738	-0.211689	0.0674164	0.675137	0.44621	0	0	-0.100933	-0.316906	0.170845	0.601941	1.38803	0	0
2.01	0.381312	1.47942	-2.02813	0.96254	-0.492646	0.912496	-0.341627	-0.0201335	-0.265743	0.180759	0.317683	0	0	0.298412	-0.00340142	-0.25087	0.0524195	0.12903	0	0	-0.240473	-0.0770312	-0.0647337	-0.224441	-0.209588	0.064227	0.673694	0.450531	0	0	-0.104235	-0.318086	0.162783	0.602021	1.39213	0	0
2.02	0.372895	1.47814	-2.02262	0.962687	-0.503721	0.911325	-0.344758	-0.0256938	-0.268284	0.200638	0.31877	0	0	0.307935	-0.00452082	-0.25015	0.0971173	0.139888	0	0	-0.240386	-0.0800392	-0.0590134	-0.227387	-0.209152	0.0623138	0.671492	0.452575	0	0	-0.106422	-0.318149	0.156595	0.601387	1.39333	0	0
2.03	0.389702	1.47718	-2.04294	0.962846	-0.515278	0.909999	-0.349924	-0.0333213	-0.272397	0.218031	0.321102	0	0	0.316177	-0.00296781	-0.248521	0.136359	0.148085	0	0	-0.237566	-0.0853557	-0.0528676	-0.231262	-0.208552	0.0612528	0.668283	0.45311	0	0	-0.110425	-0.318566	0.150086	0.601978	1.39363	0	0
2.04	0.411545	1.47522	-2.06889	0.963172	-0.527034	0.908926	-0.355197	-0.0425709	-0.275151	0.236377	0.321298	0	0	0.319387	0.000980187	-0.242961	0.163748	0.145142	0	0	-0.235031	-0.091433	-0.0460409	-0.235339	-0.208199	0.0602644	0.664599	0.452671	0	0	-0.114246	-0.318824	0.145042	0.602348	1.39254	0	0
2.05	0.441675	1.47248	-2.10284	0.963694	-0.538932	0.908078	-0.359135	-0.053853	-0.279322	0.258114	0.320953	0	0	0.32093	0.0060191	-0.240563	0.185553	0.131856	0	0	-0.232838	-0.0985003	-0.039815	-0.239129	-0.207562	0.0583922	0.660304	0.452517	0	0	-0.118313	-0.318877	0.139065	0.603184	1.39046	0	0
2.06	0.476019	1.46897	-2.14096	0.964372	-0.550881	0.907532	-0.361492	-0.0668984	-0.283483	0.283124	0.318679	0	0	0.321272	0.0107406	-0.243443	0.205333	0.110766	0	0	-0.23118	-0.106359	-0.0339146	-0.241877	-0.206841	0.0569342	0.654476	0.452997	0	0	-0.122214	-0.31877	0.132696	0.603948	1.3882	0	0
2.07	0.512793	1.46468	-2.1809	0.965178	-0.56295	0.907281	-0.362653	-0.0811174	-0.287182	0.310809	0.312649	0	0	0.321927	0.0144556	-0.251615	0.22997	0.0951419	0	0	-0.229615	-0.115042	-0.0288488	-0.243891	-0.205862	0.0563923	0.646845	0.454052	0	0	-0.126145	-0.318748	0.126312	0.604343	1.38535	0	0
2.08	0.54941	1.46116	-2.22017	0.966068	-0.574996	0.907191	-0.360199	-0.0955299	-0.289975	0.343108	0.302981	0	0	0.326761	0.0155717	-0.263437	0.26584	0.0928044	0	0	-0.227075	-0.123402	-0.0243968	-0.244763	-0.2046	0.056127	0.637108	0.454692	0	0	-0.130076	-0.319027	0.120641	0.605153	1.37955	0	0
2.09	0.581335	1.45722	-2.25413	0.967074	-0.587136	0.907445	-0.355972	-0.110112	-0.29116	0.378823	0.288466	0	0	0.331153	0.0166946	-0.269704	0.304081	0.0960853	0	0	-0.224883	-0.131536	-0.0202595	-0.245905	-0.203187	0.0561501	0.62762	0.453076	0	0	-0.133643	-0.320033	0.11831	0.606313	1.37317	0	0
2.1	0.614272	1.45339	-2.28771	0.968274	-0.599419	0.907982	-0.349328	-0.125158	-0.292572	0.417481	0.268881	0	0	0.335197	0.0189349	-0.272165	0.341797	0.102349	0	0	-0.22212	-0.13949	-0.0170699	-0.247448	-0.201736	0.0575322	0.617693	0.450113	0	0	-0.137033	-0.321428	0.117977	0.607302	1.3648	0	0
2.11	0.645191	1.44967	-2.3175	0.969733	-0.611766	0.908876	-0.339919	-0.140599	-0.294474	0.460155	0.242826	0	0	0.336716	0.0225825	-0.274153	0.373821	0.109267	0	0	-0.219102	-0.146797	-0.0156373	-0.248909	-0.20045	0.0614076	0.606993	0.445177	0	0	-0.140277	-0.323047	0.119034	0.608016	1.35515	0	0
2.12	0.674404	1.44652	-2.34354	0.971505	-0.6241	0.910047	-0.32629	-0.156491	-0.296615	0.508667	0.209144	0	0	0.334522	0.0278833	-0.276325	0.396504	0.114717	0	0	-0.21569	-0.152946	-0.0162133	-0.250287	-0.199462	0.0679065	0.595799	0.438039	0	0	-0.143165	-0.324851	0.121677	0.608564	1.34564	0	0
2.13	0.708104	1.44444	-2.37155	0.973612	-0.636509	0.911292	-0.308075	-0.172528	-0.299386	0.56137	0.166478	0	0	0.328949	0.0356216	-0.27609	0.408893	0.118046	0	0	-0.210792	-0.158034	-0.0192924	-0.252106	-0.198569	0.0750419	0.584598	0.430684	0	0	-0.146385	-0.326938	0.125266	0.609536	1.33587	0	0
2.14	0.748093	1.44409	-2.40419	0.976022	-0.648896	0.912425	-0.284431	-0.188293	-0.300565	0.617765	0.114642	0	0	0.321228	0.0452347	-0.272881	0.412349	0.119174	0	0	-0.203711	-0.161583	-0.0240277	-0.255048	-0.198362	0.0831809	0.575113	0.422172	0	0	-0.150002	-0.329253	0.129999	0.611409	1.32578	0	0
2.15	0.79615	1.44501	-2.44425	0.97866	-0.661125	0.91336	-0.25624	-0.204052	-0.299388	0.676514	0.0555736	0	0	0.312444	0.056422	-0.267663	0.409796	0.119878	0	0	-0.194832	-0.164004	-0.0294577	-0.259128	-0.198671	0.0908463	0.56821	0.413454	0	0	-0.15361	-0.331796	0.136063	0.614155	1.31638	0	0
2.16	0.844028	1.44605	-2.48441	0.981286	-0.673137	0.914217	-0.225474	-0.219174	-0.294629	0.736247	-0.00495893	0	0	0.302128	0.0678286	-0.262315	0.403956	0.122855	0	0	-0.186248	-0.165779	-0.0348994	-0.263991	-0.198373	0.0933287	0.563836	0.408515	0	0	-0.157006	-0.334563	0.141316	0.618145	1.31084	0	0
2.17	0.890989	1.44637	-2.52441	0.983757	-0.684944	0.915079	-0.193153	-0.233496	-0.285555	0.795117	-0.0687167	0	0	0.290579	0.0792788	-0.257758	0.396629	0.126408	0	0	-0.178168	-0.167976	-0.0404944	-0.268602	-0.198035	0.0955619	0.560602	0.404284	0	0	-0.160778	-0.338549	0.14764	0.624187	1.30497	0	0
2.18	0.929761	1.4456	-2.55731	0.985956	-0.696362	0.916022	-0.159836	-0.246653	-0.272447	0.853249	-0.130652	0	0	0.27763	0.0901114	-0.251736	0.389029	0.129304	0	0	-0.17198	-0.170567	-0.0460437	-0.272479	-0.197639	0.0971657	0.55971	0.400729	0	0	-0.164138	-0.344138	0.155503	0.632142	1.29841	0	0
2.19	0.95581	1.44363	-2.57877	0.987867	-0.707388	0.917101	-0.126202	-0.258713	-0.257127	0.909893	-0.189166	0	0	0.26334	0.0998843	-0.24412	0.382217	0.131625	0	0	-0.168671	-0.17352	-0.0514415	-0.275425	-0.196819	0.0964439	0.561141	0.398325	0	0	-0.166876	-0.350766	0.163459	0.641373	1.29167	0	0
2.2	0.965007	1.44072	-2.5839	0.989537	-0.718244	0.918379	-0.0943387	-0.269199	-0.242218	0.962546	-0.244242	0	0	0.247203	0.108093	-0.236801	0.376566	0.134209	0	0	-0.168331	-0.176374	-0.0571412	-0.277867	-0.195212	0.0924393	0.563822	0.399042	0	0	-0.169303	-0.357962	0.170117	0.651389	1.28539	0	0
2.21	0.955667	1.43727	-2.5707	0.991	-0.728909	0.919926	-0.0661301	-0.277221	-0.227928	1.00882	-0.290094	0	0	0.228726	0.114334	-0.230559	0.371345	0.138505	0	0	-0.170897	-0.178442	-0.0631331	-0.279651	-0.193336	0.0860751	0.566638	0.402731	0	0	-0.170669	-0.365283	0.175686	0.66084	1.27989	0	0
2.22	0.931485	1.43371	-2.54308	0.992307	-0.739312	0.921691	-0.0414925	-0.282317	-0.213883	1.04891	-0.312136	0	0	0.207772	0.118684	-0.225414	0.365114	0.14377	0	0	-0.175962	-0.17937	-0.06934	-0.280301	-0.19141	0.0775543	0.569008	0.409158	0	0	-0.170717	-0.372562	0.180816	0.669399	1.27439	0	0
2.23	0.894688	1.42996	-2.50364	0.993468	-0.749446	0.923674	-0.0185699	-0.285305	-0.199803	1.08712	-0.30161	0	0	0.183866	0.121572	-0.221211	0.356333	0.148448	0	0	-0.183386	-0.179114	-0.0749079	-0.280259	-0.188832	0.0640976	0.571009	0.424915	0	0	-0.169136	-0.380325	0.188844	0.677527	1.26343	0	0
2.24	0.869901	1.42755	-2.47616	0.994569	-0.759467	0.925386	0.00463209	-0.288152	-0.183136	1.11423	-0.277072	0	0	0.161988	0.12375	-0.218553	0.347248	0.152935	0	0	-0.188268	-0.178522	-0.0812122	-0.279957	-0.187744	0.0576922	0.572832	0.436768	0	0	-0.167627	-0.386664	0.192296	0.683167	1.25616	0	0
2.25	0.830225	1.42577	-2.43321	0.995813	-0.769359	0.927414	0.0281719	-0.288161	-0.172475	1.14766	-0.232193	0	0	0.137387	0.124262	-0.215451	0.335274	0.15659	0	0	-0.194657	-0.175263	-0.0884003	-0.278848	-0.18769	0.0522515	0.573685	0.446593	0	0	-0.164559	-0.391147	0.192873	0.685111	1.2546	0	0
2.26	0.786111	1.4245	-2.38568	0.997095	-0.779142	0.929518	0.0503095	-0.286134	-0.163174	1.1736	-0.191603	0	0	0.111852	0.123787	-0.212656	0.321292	0.159568	0	0	-0.200891	-0.170595	-0.0961024	-0.2774	-0.188419	0.0489666	0.572922	0.454404	0	0	-0.160812	-0.394387	0.190501	0.684739	1.25837	0	0
2.27	0.739012	1.42377	-2.33515	0.998373	-0.788778	0.93163	0.071689	-0.282304	-0.154934	1.19296	-0.15924	0	0	0.0858892	0.122274	-0.210353	0.305524	0.161439	0	0	-0.206923	-0.164667	-0.103787	-0.27607	-0.190014	0.0491467	0.572012	0.459379	0	0	-0.156166	-0.39667	0.18655	0.68305	1.26593	0	0
2.28	0.693442	1.42337	-2.28613	0.99964	-0.79831	0.933685	0.0927976	-0.277595	-0.147539	1.20671	-0.132056	0	0	0.0600478	0.120443	-0.207794	0.287936	0.161825	0	0	-0.212811	-0.158149	-0.110543	-0.276024	-0.19203	0.0501564	0.572644	0.462244	0	0	-0.149977	-0.398632	0.183097	0.680305	1.27441	0	0
2.29	0.643549	1.42347	-2.2324	1.00101	-0.807645	0.935698	0.116359	-0.271971	-0.1464	1.22836	-0.0955278	0	0	0.0351679	0.117494	-0.20361	0.271066	0.161693	0	0	-0.218746	-0.150058	-0.117231	-0.276268	-0.194576	0.0514548	0.573751	0.464978	0	0	-0.142555	-0.400069	0.180348	0.676569	1.28236	0	0
2.3	0.753131	1.4089	-2.34344	1.00027	-0.817262	0.937868	0.146519	-0.295884	-0.131664	1.24011	-0.0649003	0	0	0.00950487	0.145057	-0.198638	0.238838	0.142249	0	0	-0.217424	-0.178508	-0.124364	-0.271309	-0.184874	0.0536205	0.557457	0.473004	0	0	-0.142051	-0.412947	0.177035	0.679064	1.28631	0	0
2.31	0.565428	1.42575	-2.14383	1.00357	-0.825855	0.938967	0.158319	-0.259483	-0.140836	1.23317	-0.044344	0	0	-0.00715985	0.111164	-0.191392	0.241182	0.161665	0	0	-0.226092	-0.135168	-0.133333	-0.274971	-0.197375	0.0543339	0.570527	0.473418	0	0	-0.128981	-0.4059	0.178456	0.673434	1.28725	0	0
2.32	0.509681	1.41861	-2.08546	1.00402	-0.834973	0.941764	0.16761	-0.253351	-0.137561	1.22435	-0.0229043	0	0	-0.038443	0.109105	-0.191008	0.223437	0.15913	0	0	-0.23841	-0.130971	-0.139822	-0.274337	-0.19787	0.0603566	0.572363	0.470154	0	0	-0.12063	-0.409159	0.17306	0.669613	1.29618	0	0
